<svg width="144" height="132" viewBox="0 0 144 132" fill="none" xmlns="http://www.w3.org/2000/svg">
<rect width="144" height="132" rx="8" fill="#F4F5F7"/>
<g opacity="0.1">
<path d="M60 71L66.2876 64.7125C66.3806 64.618 66.4915 64.543 66.6138 64.4918C66.7361 64.4406 66.8674 64.4142 67 64.4142C67.1326 64.4142 67.2639 64.4406 67.3862 64.4918C67.5085 64.543 67.6194 64.618 67.7124 64.7125L73.2876 70.2875C73.3806 70.382 73.4915 70.457 73.6138 70.5082C73.7361 70.5594 73.8674 70.5858 74 70.5858C74.1326 70.5858 74.2639 70.5594 74.3862 70.5082C74.5085 70.457 74.6194 70.382 74.7124 70.2875L77.2876 67.7125C77.3806 67.618 77.4915 67.543 77.6138 67.4918C77.7361 67.4406 77.8674 67.4142 78 67.4142C78.1326 67.4142 78.2639 67.4406 78.3862 67.4918C78.5085 67.543 78.6194 67.618 78.7124 67.7125L84 73V57C84 56.7348 83.8945 56.4804 83.707 56.2929C83.5195 56.1053 83.2651 56 83 56H61C60.7349 56 60.4805 56.1053 60.293 56.2929C60.1055 56.4804 60 56.7348 60 57V71Z" fill="#F4F5F7"/>
<path fill-rule="evenodd" clip-rule="evenodd" d="M59 57C59 57 59 56.1716 59.5858 55.5858C59.5858 55.5858 60.1716 55 61 55H83C83 55 83.8284 55 84.4142 55.5858C84.4142 55.5858 85 56.1716 85 57V75C85 75 85 75.8284 84.4142 76.4142C84.4142 76.4142 83.8284 77 83 77H61C61 77 60.1716 77 59.5858 76.4142C59.5858 76.4142 59 75.8284 59 75V57ZM61 57V75H83V57H61Z" fill="#2D3338"/>
<path d="M78.0054 68.4195L83.2929 73.707C83.4804 73.8945 83.7348 73.9999 84 73.9999C84.2652 73.9999 84.5196 73.8945 84.7071 73.707C84.8946 73.5195 85 73.2651 85 72.9999C85 72.7347 84.8946 72.4803 84.7071 72.2928L79.4196 67.0053C79.1431 66.7244 78.7724 66.5692 78.7724 66.5692C78.4018 66.4141 78 66.4141 78 66.4141C77.5982 66.4141 77.2276 66.5692 77.2276 66.5692C76.8569 66.7244 76.575 67.0107 76.575 67.0107L74.0054 69.5803L74 69.5857L68.4196 64.0053C68.1431 63.7244 67.7724 63.5692 67.7724 63.5692C67.4018 63.4141 67 63.4141 67 63.4141C66.5982 63.4141 66.2276 63.5692 66.2276 63.5692C65.8569 63.7244 65.575 64.0107 65.575 64.0107L59.2933 70.2924L59.2929 70.2928C59.1054 70.4803 59 70.7347 59 70.9999C59 71.0159 59.0004 71.0319 59.0012 71.0479C59.0131 71.2962 59.1171 71.5312 59.2929 71.707C59.4804 71.8945 59.7348 71.9999 60 71.9999C60.2652 71.9999 60.5196 71.8945 60.7071 71.707L60.7075 71.7066L67 65.4141L67.0054 65.4195L72.575 70.9891C72.8569 71.2753 73.2276 71.4305 73.2276 71.4305C73.5982 71.5857 74 71.5857 74 71.5857C74.4018 71.5857 74.7724 71.4305 74.7724 71.4305C75.1431 71.2753 75.4196 70.9945 75.4196 70.9945L78 68.4141L78.0054 68.4195Z" fill="#2D3338"/>
<path d="M77 62.5C77 63.3284 76.3284 64 75.5 64C74.6716 64 74 63.3284 74 62.5C74 61.6716 74.6716 61 75.5 61C76.3284 61 77 61.6716 77 62.5Z" fill="#2D3338"/>
</g>
</svg>
